<mxfile host="app.diagrams.net" modified="2024-02-19T09:07:51.262Z" agent="Mozilla/5.0 (Windows NT 10.0; Win64; x64) AppleWebKit/537.36 (KHTML, like Gecko) Chrome/121.0.0.0 Safari/537.36 Edg/121.0.0.0" etag="cRH1hGe2RWeeeXymqbxp" version="23.1.5" type="github">
  <diagram name="第 1 页" id="XgvN39BDH7xdbxzbFhD1">
    <mxGraphModel dx="960" dy="605" grid="1" gridSize="10" guides="1" tooltips="1" connect="1" arrows="1" fold="1" page="1" pageScale="1" pageWidth="827" pageHeight="1169" math="0" shadow="0">
      <root>
        <mxCell id="0" />
        <mxCell id="1" parent="0" />
        <mxCell id="E4i2guZdNF2sfasAK823-1" value="" style="group" vertex="1" connectable="0" parent="1">
          <mxGeometry x="520" y="200" width="240" height="125" as="geometry" />
        </mxCell>
        <mxCell id="E4i2guZdNF2sfasAK823-2" value="" style="ellipse;whiteSpace=wrap;html=1;aspect=fixed;strokeColor=default;fillColor=#ffe6cc;shadow=0;opacity=47;" vertex="1" parent="E4i2guZdNF2sfasAK823-1">
          <mxGeometry y="45" width="23.346303501945524" height="23.346303501945524" as="geometry" />
        </mxCell>
        <mxCell id="E4i2guZdNF2sfasAK823-4" value="" style="ellipse;whiteSpace=wrap;html=1;aspect=fixed;strokeColor=default;fillColor=#dae8fc;shadow=0;opacity=47;" vertex="1" parent="E4i2guZdNF2sfasAK823-1">
          <mxGeometry x="70.00112840466926" y="60.07" width="23.346303501945524" height="23.346303501945524" as="geometry" />
        </mxCell>
        <mxCell id="E4i2guZdNF2sfasAK823-5" value="" style="ellipse;whiteSpace=wrap;html=1;aspect=fixed;strokeColor=default;fillColor=#f0a30a;shadow=0;opacity=47;fontColor=#000000;" vertex="1" parent="E4i2guZdNF2sfasAK823-1">
          <mxGeometry x="108.32373540856031" y="21.65" width="23.346303501945524" height="23.346303501945524" as="geometry" />
        </mxCell>
        <mxCell id="E4i2guZdNF2sfasAK823-7" value="" style="ellipse;whiteSpace=wrap;html=1;aspect=fixed;strokeColor=default;fillColor=#e3c800;shadow=0;opacity=47;fontColor=#000000;" vertex="1" parent="E4i2guZdNF2sfasAK823-1">
          <mxGeometry x="186.7704280155642" width="23.346303501945524" height="23.346303501945524" as="geometry" />
        </mxCell>
        <mxCell id="E4i2guZdNF2sfasAK823-9" value="" style="ellipse;whiteSpace=wrap;html=1;aspect=fixed;strokeColor=default;fillColor=#e1d5e7;shadow=0;opacity=47;" vertex="1" parent="E4i2guZdNF2sfasAK823-1">
          <mxGeometry x="210.11673151750972" y="100" width="23.346303501945524" height="23.346303501945524" as="geometry" />
        </mxCell>
        <mxCell id="E4i2guZdNF2sfasAK823-10" value="" style="ellipse;whiteSpace=wrap;html=1;aspect=fixed;strokeColor=default;fillColor=#1ba1e2;shadow=0;opacity=47;fontColor=#ffffff;" vertex="1" parent="E4i2guZdNF2sfasAK823-1">
          <mxGeometry x="158.75486381322958" y="100" width="23.346303501945524" height="23.346303501945524" as="geometry" />
        </mxCell>
        <mxCell id="E4i2guZdNF2sfasAK823-12" value="" style="endArrow=none;html=1;rounded=0;entryX=0;entryY=1;entryDx=0;entryDy=0;" edge="1" parent="E4i2guZdNF2sfasAK823-1" target="E4i2guZdNF2sfasAK823-5">
          <mxGeometry width="50" height="50" relative="1" as="geometry">
            <mxPoint x="93.97" y="70.07" as="sourcePoint" />
            <mxPoint x="120.11272239859565" y="59.99731651191025" as="targetPoint" />
          </mxGeometry>
        </mxCell>
        <mxCell id="E4i2guZdNF2sfasAK823-19" value="" style="endArrow=none;html=1;rounded=0;entryX=0;entryY=0.5;entryDx=0;entryDy=0;exitX=1;exitY=0.5;exitDx=0;exitDy=0;" edge="1" parent="E4i2guZdNF2sfasAK823-1" source="E4i2guZdNF2sfasAK823-10" target="E4i2guZdNF2sfasAK823-9">
          <mxGeometry width="50" height="50" relative="1" as="geometry">
            <mxPoint x="168.09338521400778" y="125" as="sourcePoint" />
            <mxPoint x="-168.09338521400778" y="145" as="targetPoint" />
          </mxGeometry>
        </mxCell>
        <mxCell id="E4i2guZdNF2sfasAK823-25" value="" style="endArrow=none;html=1;rounded=0;entryX=0;entryY=0.5;entryDx=0;entryDy=0;exitX=1;exitY=0.5;exitDx=0;exitDy=0;" edge="1" parent="E4i2guZdNF2sfasAK823-1" source="E4i2guZdNF2sfasAK823-2" target="E4i2guZdNF2sfasAK823-4">
          <mxGeometry width="50" height="50" relative="1" as="geometry">
            <mxPoint x="-130" y="140" as="sourcePoint" />
            <mxPoint x="-80" y="90" as="targetPoint" />
          </mxGeometry>
        </mxCell>
        <mxCell id="E4i2guZdNF2sfasAK823-26" value="" style="endArrow=none;html=1;rounded=0;entryX=0;entryY=0.5;entryDx=0;entryDy=0;exitX=1;exitY=0.5;exitDx=0;exitDy=0;" edge="1" parent="E4i2guZdNF2sfasAK823-1" source="E4i2guZdNF2sfasAK823-5" target="E4i2guZdNF2sfasAK823-7">
          <mxGeometry width="50" height="50" relative="1" as="geometry">
            <mxPoint x="-130" y="140" as="sourcePoint" />
            <mxPoint x="-80" y="90" as="targetPoint" />
          </mxGeometry>
        </mxCell>
        <mxCell id="E4i2guZdNF2sfasAK823-27" value="" style="endArrow=none;html=1;rounded=0;entryX=0.5;entryY=1;entryDx=0;entryDy=0;" edge="1" parent="E4i2guZdNF2sfasAK823-1" source="E4i2guZdNF2sfasAK823-9" target="E4i2guZdNF2sfasAK823-7">
          <mxGeometry width="50" height="50" relative="1" as="geometry">
            <mxPoint x="-130" y="140" as="sourcePoint" />
            <mxPoint x="-80" y="90" as="targetPoint" />
          </mxGeometry>
        </mxCell>
      </root>
    </mxGraphModel>
  </diagram>
</mxfile>
